PathFileType	4	(X/Y/Z)	C:\Users\Basilio\Documents\Thesis Gigler\squatting_fais\c3dfiles\039\SLS_pre_front5\markers_experimental.trc
DataRate	CameraRate	NumFrames	NumMarkers	Units	OrigDataRate	OrigDataStartFrame	OrigNumFrames
200.000000	200.000000	4	63	mm	200.000000	747	1992
Frame#	Time	FHD			LBHD			RBHD			C7			T10			LSHO			LUUPA			LMUPA			LDUPA			LLEP			LMEP			LUL			LRFIN			RSHO			RUPA1			RMUPA			RDUPA			RLEP			RMEP			RRAD			RUL			RUFIN			LASI			RASI			USACR			LSACR			RSACR			LTHI1			LTHI2			LTHI3			LTHI4			LLFC			LMFC			LTIB1			LTIB2			LTIB3			LTIB4			LLMAL			LMMAL			LHEE			LMT1			LMT2			LMT5			RTHI			RTHI2			RTHI3			RTHI4			RLFC			RMFC			RTIB1			RTIB2			RTIB3			RTIB4			RLMAL			RMMAL			RHEE			RMT1			RMT2			RMT5			LRAD			CLAV			*61			*62			
		X1	Y1	Z1	X2	Y2	Z2	X3	Y3	Z3	X4	Y4	Z4	X5	Y5	Z5	X6	Y6	Z6	X7	Y7	Z7	X8	Y8	Z8	X9	Y9	Z9	X10	Y10	Z10	X11	Y11	Z11	X12	Y12	Z12	X13	Y13	Z13	X14	Y14	Z14	X15	Y15	Z15	X16	Y16	Z16	X17	Y17	Z17	X18	Y18	Z18	X19	Y19	Z19	X20	Y20	Z20	X21	Y21	Z21	X22	Y22	Z22	X23	Y23	Z23	X24	Y24	Z24	X25	Y25	Z25	X26	Y26	Z26	X27	Y27	Z27	X28	Y28	Z28	X29	Y29	Z29	X30	Y30	Z30	X31	Y31	Z31	X32	Y32	Z32	X33	Y33	Z33	X34	Y34	Z34	X35	Y35	Z35	X36	Y36	Z36	X37	Y37	Z37	X38	Y38	Z38	X39	Y39	Z39	X40	Y40	Z40	X41	Y41	Z41	X42	Y42	Z42	X43	Y43	Z43	X44	Y44	Z44	X45	Y45	Z45	X46	Y46	Z46	X47	Y47	Z47	X48	Y48	Z48	X49	Y49	Z49	X50	Y50	Z50	X51	Y51	Z51	X52	Y52	Z52	X53	Y53	Z53	X54	Y54	Z54	X55	Y55	Z55	X56	Y56	Z56	X57	Y57	Z57	X58	Y58	Z58	X59	Y59	Z59	X60	Y60	Z60	X61	Y61	Z61	X62	Y62	Z62	X63	Y63	Z63	

748	3.735	-293.2570190429688	1610.728149414063	-649.3773803710939	-451.2930297851564	1590.415405273438	-769.4954223632815	-424.2498168945314	1592.886352539063	-627.0947875976564	-506.6434326171876	1429.9853515625	-707.9515991210939	-560.6668090820314	1127.173461914063	-725.0816650390626	-436.1698303222657	1443.365112304688	-863.173522949219	-270.6786193847657	1411.171752929688	-973.3864746093752	-248.5368347167969	1443.552490234375	-941.787536621094	-201.8258666992188	1422.034912109375	-973.2222900390627	-135.6419372558594	1431.916870117188	-967.9001464843752	-128.4787750244141	1359.533447265625	-936.783630371094	141.4556732177735	1471.875610351563	-966.4168090820315	226.0090789794922	1504.247192382813	-889.818298339844	-391.2531127929689	1435.900756835938	-556.0462646484376	-225.5647430419922	1384.700805664063	-460.246063232422	-202.0249481201172	1419.098510742188	-489.197235107422	-157.1560974121094	1385.1416015625	-465.2175903320314	-95.7627410888672	1402.451904296875	-478.4905700683595	-87.68140411376955	1333.838500976563	-515.3107299804689	185.6853332519532	1460.076293945313	-571.8536376953126	189.7164459228516	1453.745239257813	-495.6075134277345	270.2524414062501	1499.925659179688	-568.0581054687501	-403.5722656250001	976.1740722656252	-862.1699829101565	-389.0036010742189	948.3704833984377	-640.7714843750001	-582.1225585937501	977.630065917969	-737.4139404296876	-584.0107421875001	948.0005493164065	-767.5216064453126	-579.2673339843751	941.8010253906252	-709.2789916992189	-263.5223693847657	786.9700317382815	-940.4849853515627	-179.1580810546875	777.7943115234377	-930.7327270507815	-159.8883819580078	817.5535278320315	-912.8099365234377	-148.4635620117188	724.9109497070314	-921.964050292969	-41.87873840332032	666.7029418945314	-915.4515380859377	-15.42659854888916	660.5035400390626	-799.3692016601565	112.5490951538086	628.9044799804689	-883.852722167969	113.2555618286133	557.5422973632814	-933.6966552734377	140.3335571289063	586.8776245117189	-912.7019653320315	204.4468688964844	539.7133178710939	-875.518493652344	314.7754516601563	404.7151794433595	-917.9849243164065	320.2703857421876	404.6977539062501	-829.7656250000002	317.1208801269532	311.7422485351563	-887.770446777344	459.6976013183595	491.9784545898439	-834.3629150390627	457.5910034179689	494.9656066894532	-876.508972167969	452.7615966796876	453.247772216797	-935.021179199219	-299.6541442871094	696.0964965820314	-587.3720092773439	-236.5519104003907	672.8203125000001	-587.4747314453126	-210.8259277343751	693.2757568359376	-591.8291015625001	-215.1140747070313	591.5962524414064	-599.5073242187501	-185.7583465576172	475.4717407226564	-633.4661865234376	-155.8694000244141	485.0714111328126	-744.4509887695314	-216.2979125976563	283.1460876464844	-687.4664306640626	-319.3604125976563	251.8414001464844	-682.4573364257814	-279.1033935546876	228.338607788086	-690.4193115234376	-280.8078613281251	182.4565734863282	-729.7171020507814	-377.1235656738282	118.0941925048828	-719.0018920898439	-343.4706726074219	138.2562713623047	-801.302673339844	-450.8216857910157	103.8567657470703	-773.2476806640627	-227.2719268798829	54.168270111084	-778.8377685546877	-231.8397369384766	57.85683059692384	-732.9598388671876	-289.1429748535157	41.5056381225586	-683.6071166992189	138.5932159423828	1469.001953125	-894.0087890625002	nan	nan	nan	nan	nan	nan	nan	nan	nan	
749	3.74	-292.9502563476563	1610.468383789063	-649.1171264648439	-450.8289489746095	1590.213989257813	-769.581726074219	-424.0853271484376	1592.548095703125	-626.8224487304689	-506.4471130371095	1429.603759765625	-707.8315429687501	-560.6445922851564	1126.820556640625	-725.0974731445314	-435.4977416992189	1442.974487304688	-862.7922973632815	-270.3739318847657	1410.756103515625	-973.3308715820315	-248.2344512939454	1443.134887695313	-941.7520141601565	-201.4970855712891	1421.5751953125	-973.0583496093752	-135.359375	1431.493896484375	-967.8237915039065	-128.2643280029297	1359.1767578125	-936.760437011719	141.7989501953125	1471.29443359375	-966.5196533203127	226.3721160888672	1503.71630859375	-889.932800292969	-391.0630798339845	1435.451416015625	-555.9708251953126	-225.483383178711	1384.13134765625	-460.0580444335939	-201.9588928222657	1418.607299804688	-489.1036376953126	-157.1796264648438	1384.434204101563	-465.1913452148439	-95.6769256591797	1402.014282226563	-478.3172607421876	-87.82503509521486	1333.087768554688	-515.2384643554689	185.7503051757813	1459.59765625	-571.6752319335939	189.4406280517578	1452.95703125	-495.8851013183595	270.3796081542969	1499.418823242188	-567.9757080078126	-403.6404418945314	975.7827758789065	-862.0776977539065	-389.213592529297	947.9641113281252	-640.6862182617189	-582.2365722656251	977.2746582031252	-737.4211425781251	-584.0647583007814	947.5410766601565	-767.5386962890626	-579.1974487304689	941.5088500976565	-709.1735229492189	-263.1598205566407	786.8634033203127	-940.3494262695315	-179.2187957763672	777.4824829101565	-930.7141723632815	-159.9481201171875	817.1643066406252	-912.8462524414065	-148.399169921875	724.4186401367189	-921.8005371093752	-42.06752395629884	666.3173217773439	-915.4084472656252	-15.22180557250977	660.2046508789064	-799.3840942382815	112.7223281860352	628.6843872070314	-883.9534912109377	113.3417587280274	557.2538452148439	-933.264831542969	140.409912109375	586.5759887695314	-912.7210693359377	204.4979248046876	539.5474243164064	-875.5608520507815	314.9364624023438	404.5930175781251	-918.247741699219	320.5119018554688	404.558319091797	-829.8997192382815	317.2329101562501	311.5303039550782	-887.7404785156252	459.8978576660157	491.9673156738282	-834.5815429687502	457.7492065429689	494.8362426757814	-876.8450927734377	452.818084716797	453.0682983398439	-935.2863769531252	-299.6770935058594	696.0280761718751	-587.3245849609376	-236.4468231201172	672.8216552734376	-586.0821533203126	-210.8974304199219	693.1014404296876	-591.3239135742189	-215.1729278564454	591.2094116210939	-598.8548583984376	-185.690170288086	475.3088989257814	-632.8455810546876	-155.5569610595703	484.9318237304689	-743.7164306640626	-216.3664703369141	283.0692443847657	-686.8789062500001	-319.3316955566407	251.7708129882813	-681.9973754882814	-279.1105651855469	228.4225006103516	-689.9747924804689	-280.8382568359376	182.4514770507813	-729.4364624023439	-377.1376037597657	118.0377502441407	-718.7994995117189	-343.4557800292969	138.3574981689453	-801.0591430664065	-450.8631591796876	103.8766403198242	-773.1814575195315	-227.2395477294922	54.19594573974611	-778.7734985351565	-231.8610382080079	57.85533142089845	-732.9372558593751	-289.1745300292969	41.4735450744629	-683.5296630859376	138.5684661865235	1468.90380859375	-894.071716308594	nan	nan	nan	nan	nan	nan	nan	nan	nan	
750	3.745	-292.7152099609376	1609.93701171875	-648.8587646484376	-450.3329467773439	1589.824340820313	-769.7921142578127	-423.8890380859376	1592.021484375	-626.6741943359376	-506.3377990722657	1429.142944335938	-707.6530761718751	-560.6051025390626	1126.461303710938	-725.1563110351564	-435.0221557617189	1442.625610351563	-862.7520751953127	-270.0776672363282	1410.359741210938	-973.267761230469	-248.1290283203126	1442.389282226563	-941.6042480468752	-201.2377014160157	1421.111938476563	-973.006286621094	-135.2297668457032	1431.0693359375	-967.8191528320315	-128.0578002929688	1358.701538085938	-936.6958618164065	142.0241394042969	1470.7587890625	-966.5922851562502	226.5726318359376	1503.176635742188	-890.0398559570315	-390.9416503906251	1434.993530273438	-555.9086303710939	-225.2645568847657	1383.800537109375	-459.9280700683595	-201.8911590576172	1418.121704101563	-488.9160156250001	-157.0904846191407	1383.896850585938	-464.9932556152345	-95.58804321289064	1401.489013671875	-478.2574157714845	-87.8272171020508	1332.571166992188	-515.0344848632814	185.7897491455078	1459.16845703125	-571.5236816406251	189.4530334472657	1452.4267578125	-495.7914428710939	270.3896484375001	1499.0048828125	-567.7621459960939	-403.6305541992189	975.309753417969	-862.058044433594	-389.3949279785157	947.6641235351565	-640.6248168945314	-582.2816162109376	976.9442138671877	-737.4312744140626	-584.0792236328126	946.9848632812502	-767.4506225585939	-579.2329101562501	941.2030029296877	-708.9517211914064	-263.2093505859376	786.3264770507815	-940.2513427734377	-179.22265625	777.0816650390627	-930.696472167969	-159.6211700439453	816.6029052734377	-912.797302246094	-148.3943939208985	723.9464721679689	-921.674499511719	-42.02103805541993	665.8444213867189	-915.3095703125002	-15.06730842590332	660.0534057617189	-799.4207153320315	112.8268203735352	628.3880004882814	-884.0535888671877	113.3896408081055	556.9315795898439	-933.2771606445315	140.7493896484375	586.3877563476564	-912.8000488281252	204.5378723144532	539.3474121093751	-875.5440063476565	314.9823913574219	404.4277343750001	-918.2722167968752	320.8322448730469	404.2636718750001	-829.943786621094	317.5440368652344	311.3834838867188	-887.6622314453127	460.1838989257814	491.8821411132814	-834.8160400390627	457.8947753906251	494.6962280273439	-877.045104980469	452.720916748047	452.8067321777345	-935.5499267578127	-299.6754760742188	695.7760620117189	-586.8515625000001	-236.6562652587891	672.7542114257814	-585.4721679687501	-210.9772186279297	692.9173583984376	-590.8281860351564	-215.2694549560547	591.0523071289064	-598.2805175781251	-185.5599060058594	475.029022216797	-632.2117309570314	-155.3439636230469	484.7830505371095	-742.9913940429689	-216.3118591308594	283.0213012695313	-686.3549804687501	-319.3445739746094	251.6124725341797	-681.6350708007814	-279.1721496582032	228.3679504394532	-689.5289306640626	-280.8070983886719	182.5102233886719	-729.0996093750001	-377.1070556640626	118.0045700073242	-718.6070556640626	-343.3503417968751	138.4655303955078	-800.8376464843752	-450.8743896484376	103.9318771362305	-773.1075439453127	-227.229476928711	54.29428482055665	-778.7686767578127	-231.9105072021485	57.85659790039064	-732.9514160156251	-289.1936645507813	41.41099929809571	-683.4744873046876	139.4033966064453	1468.11962890625	-893.8538208007815	nan	nan	nan	nan	nan	nan	nan	nan	nan	
751	3.75	-292.4583435058594	1609.426025390625	-648.4763793945314	-449.8996887207032	1589.488159179688	-769.9739990234377	-423.7553710937501	1591.548217773438	-626.4974365234376	-506.2693481445314	1428.813110351563	-707.5527343750001	-560.6107177734376	1126.137451171875	-725.1990966796876	-434.6734619140626	1442.241943359375	-862.6833496093752	-269.8575439453126	1409.903564453125	-973.1389160156252	-247.8150177001954	1442.019409179688	-941.5630493164065	-200.9546813964844	1420.694213867188	-972.9561767578127	-134.5830688476563	1430.499633789063	-967.7757568359377	-127.9561538696289	1358.414916992188	-936.5834960937502	142.2936401367188	1470.23876953125	-966.6858520507815	226.8544616699219	1502.6650390625	-890.2090454101565	-390.8152465820314	1434.459106445313	-555.8461914062501	-225.1992187500001	1383.28857421875	-459.9212646484376	-201.8014831542969	1417.385009765625	-488.7132873535157	-156.8831481933594	1383.436767578125	-464.909149169922	-95.53273010253908	1400.798461914063	-478.0925598144532	-87.65417480468751	1332.029663085938	-514.8839111328126	186.1067504882813	1459.072021484375	-571.3798828125001	189.7545166015625	1451.901733398438	-495.3452453613282	270.4523315429688	1498.483154296875	-567.6380004882814	-403.513397216797	974.9083251953127	-862.0205078125002	-389.5769042968751	947.3977050781252	-640.6010131835939	-582.1611938476564	976.4963989257815	-737.3683471679689	-584.1553955078126	946.5072021484377	-767.3626708984376	-579.3979492187501	940.781433105469	-708.8691406250001	-263.1405334472657	785.729431152344	-940.0476074218752	-179.5132598876953	775.9141845703127	-930.6690063476565	-159.6460113525391	816.1760253906252	-912.8980102539065	-148.3681335449219	723.4822998046876	-921.6162109375002	-41.90571212768555	665.4140014648439	-915.237243652344	-14.88933563232422	659.8981933593751	-799.3717041015627	112.8859024047852	628.2120361328126	-884.0972900390627	113.8720703125	557.1912231445314	-933.304870605469	140.8503723144532	586.1962280273439	-912.8950195312502	204.6602478027344	539.0917358398439	-875.5443115234377	315.1451416015626	404.3094482421876	-918.2114257812502	321.0782470703126	404.2485961914064	-830.0731201171877	317.9344482421876	311.1878662109376	-887.607360839844	460.4104309082032	491.7713623046876	-835.1553344726565	458.0000610351564	494.6673889160157	-877.3637695312502	452.8619995117189	452.7273864746095	-935.8311157226565	-299.7745666503907	695.5902099609376	-586.2772216796876	-236.8177795410157	672.3350830078126	-585.6624755859376	-211.0882568359376	692.7603759765626	-590.3190307617189	-215.3036193847657	590.9293212890626	-597.5565795898439	-185.5399017333985	474.9245605468751	-631.7854003906251	-155.1378021240235	484.7266845703126	-742.4595336914064	-216.2510070800782	282.8957214355469	-685.8738403320314	-319.3663024902344	251.5662689208985	-681.2916259765626	-279.2328491210938	228.3996734619141	-689.1372680664064	-280.8228759765626	182.48583984375	-728.8421630859376	-377.1554260253907	117.9489669799805	-718.4977416992189	-343.3732604980469	138.5694732666016	-800.675720214844	-450.8229370117189	103.9293441772461	-773.0626220703127	-227.1921844482422	54.38461685180665	-778.7351684570315	-231.9127197265626	57.81531143188478	-732.9472656250001	-289.2034912109376	41.36873245239259	-683.4583129882814	140.4153289794922	1466.851684570313	-893.527526855469	nan	nan	nan	nan	nan	nan	nan	nan	nan	
